<svg width="20" height="20" viewBox="0 0 20 20" fill="none" xmlns="http://www.w3.org/2000/svg">
<path d="M7 10.6667C7.304 10.6667 7.568 10.6667 7.79999 10.7227C8.15881 10.8083 8.48696 10.9915 8.74816 11.252C9.00935 11.5124 9.19342 11.8401 9.27999 12.1987C9.33333 12.432 9.33333 12.696 9.33333 13V16.3333C9.33333 16.6373 9.33333 16.9013 9.27866 17.1333C9.19284 17.4925 9.00927 17.8209 8.74828 18.0821C8.48729 18.3433 8.15907 18.5272 7.79999 18.6133C7.568 18.6667 7.304 18.6667 7 18.6667H3.66666C3.36266 18.6667 3.09866 18.6667 2.86666 18.612C2.50817 18.5259 2.18046 18.3423 1.91975 18.0816C1.65904 17.8209 1.47548 17.4932 1.38933 17.1347C1.33333 16.9013 1.33333 16.6373 1.33333 16.3333L1.33333 13C1.33333 12.696 1.33333 12.432 1.38933 12.2C1.47537 11.8417 1.65874 11.5141 1.9192 11.2534C2.17966 10.9927 2.50708 10.809 2.86533 10.7227C3.09866 10.6667 3.36266 10.6667 3.66666 10.6667H7ZM16.3333 10.6667C16.6373 10.6667 16.9013 10.6667 17.1333 10.7227C17.4919 10.8085 17.8198 10.9918 18.0807 11.2522C18.3417 11.5127 18.5255 11.8403 18.612 12.1987C18.668 12.432 18.6667 12.696 18.6667 13V16.3333C18.6667 16.6373 18.6667 16.9013 18.612 17.1333C18.5261 17.4921 18.3426 17.8201 18.0819 18.081C17.8211 18.342 17.4933 18.5258 17.1347 18.612C16.9013 18.668 16.6373 18.6667 16.3333 18.6667H13C12.696 18.6667 12.432 18.6667 12.2 18.612C11.8415 18.5259 11.5138 18.3423 11.2531 18.0816C10.9924 17.8209 10.8088 17.4932 10.7227 17.1347C10.6667 16.9013 10.6667 16.6373 10.6667 16.3333L10.6667 13C10.6667 12.696 10.6667 12.432 10.7227 12.2C10.8087 11.8417 10.9921 11.5141 11.2525 11.2534C11.513 10.9927 11.8404 10.809 12.1987 10.7227C12.432 10.6667 12.696 10.6667 13 10.6667L16.3333 10.6667ZM3.73333 12C3.32399 12 3.236 12.004 3.17866 12.0187C3.05889 12.0473 2.94939 12.1086 2.86231 12.1957C2.77523 12.2827 2.71397 12.3922 2.68533 12.512C2.67199 12.5693 2.66666 12.6587 2.66666 13.0667V16.2667C2.66666 16.6773 2.67066 16.7653 2.68533 16.8227C2.71397 16.9424 2.77523 17.0519 2.86231 17.139C2.94939 17.2261 3.05889 17.2874 3.17866 17.316C3.236 17.3293 3.32533 17.3333 3.73333 17.3333H6.93333C7.34399 17.3333 7.432 17.3293 7.48933 17.3147C7.60893 17.2861 7.71832 17.2251 7.80538 17.1383C7.89245 17.0514 7.9538 16.9422 7.98266 16.8227C7.996 16.7653 8 16.676 8 16.2667V13.0667C8 12.6573 7.996 12.5693 7.98133 12.512C7.95279 12.3924 7.89173 12.283 7.8049 12.196C7.71807 12.1089 7.60886 12.0475 7.48933 12.0187C7.432 12.0053 7.34266 12 6.93333 12H3.73333ZM13.0667 12C12.6573 12 12.5693 12.004 12.512 12.0187C12.3922 12.0473 12.2827 12.1086 12.1956 12.1957C12.1086 12.2827 12.0473 12.3922 12.0187 12.512C12.0053 12.5693 12 12.6587 12 13.0667L12 16.2667C12 16.6773 12.004 16.7653 12.0187 16.8227C12.0473 16.9424 12.1086 17.0519 12.1956 17.139C12.2827 17.2261 12.3922 17.2874 12.512 17.316C12.5693 17.3293 12.6587 17.3333 13.0667 17.3333H16.2667C16.6773 17.3333 16.7653 17.3293 16.8227 17.3147C16.9423 17.2861 17.0517 17.2251 17.1387 17.1383C17.2258 17.0514 17.2871 16.9422 17.316 16.8227C17.3293 16.7653 17.3333 16.676 17.3333 16.2667V13.0667C17.3333 12.6573 17.328 12.5693 17.3147 12.512C17.2861 12.3924 17.2251 12.283 17.1382 12.196C17.0514 12.1089 16.9422 12.0475 16.8227 12.0187C16.7653 12.0053 16.676 12 16.2667 12L13.0667 12ZM7 1.33334C7.304 1.33334 7.568 1.33334 7.79999 1.38934C8.15881 1.47495 8.48696 1.65813 8.74816 1.91862C9.00935 2.17911 9.19342 2.50676 9.27999 2.86534C9.33333 3.09868 9.33333 3.36268 9.33333 3.66668V7.00001C9.33333 7.30401 9.33333 7.56801 9.27866 7.80001C9.19284 8.15916 9.00927 8.48754 8.74828 8.74877C8.48729 9.01 8.15907 9.19387 7.79999 9.28001C7.568 9.33334 7.304 9.33334 7 9.33334H3.66666C3.36266 9.33334 3.09866 9.33334 2.86666 9.27868C2.50776 9.19264 2.17965 9.00897 1.91868 8.74799C1.6577 8.48702 1.47403 8.15892 1.38799 7.80001C1.33333 7.56801 1.33333 7.30401 1.33333 7.00001L1.33333 3.66668C1.33333 3.36268 1.33333 3.09868 1.38933 2.86668C1.47537 2.50835 1.65874 2.18076 1.9192 1.92007C2.17966 1.65937 2.50708 1.47571 2.86533 1.38934C3.09866 1.33334 3.36266 1.33334 3.66666 1.33334L7 1.33334ZM16.3333 1.33334C16.6373 1.33334 16.9013 1.33334 17.1333 1.38934C17.4919 1.47517 17.8198 1.65844 18.0807 1.91892C18.3417 2.17939 18.5255 2.50693 18.612 2.86534C18.668 3.09868 18.6667 3.36268 18.6667 3.66668V7.00001C18.6667 7.30401 18.6667 7.56801 18.612 7.80001C18.5262 8.15916 18.3426 8.48754 18.0816 8.74877C17.8206 9.01 17.4924 9.19387 17.1333 9.28001C16.9013 9.33334 16.6373 9.33334 16.3333 9.33334L13 9.33334C12.696 9.33334 12.432 9.33334 12.2 9.27868C11.8411 9.19264 11.513 9.00897 11.252 8.74799C10.991 8.48702 10.8074 8.15892 10.7213 7.80001C10.6667 7.56801 10.6667 7.30401 10.6667 7.00001V3.66668C10.6667 3.36268 10.6667 3.09868 10.7227 2.86668C10.8087 2.50835 10.9921 2.18076 11.2525 1.92007C11.513 1.65937 11.8404 1.47571 12.1987 1.38934C12.432 1.33334 12.696 1.33334 13 1.33334L16.3333 1.33334ZM3.73333 2.66668C3.32399 2.66668 3.236 2.67068 3.17866 2.68534C3.05889 2.71399 2.94939 2.77524 2.86231 2.86232C2.77523 2.9494 2.71397 3.0589 2.68533 3.17868C2.67199 3.23601 2.66666 3.32534 2.66666 3.73334L2.66666 6.93334C2.66666 7.34401 2.67066 7.43201 2.68533 7.48934C2.71397 7.60912 2.77523 7.71862 2.86231 7.8057C2.94939 7.89278 3.05889 7.95403 3.17866 7.98268C3.236 7.99601 3.32533 8.00001 3.73333 8.00001H6.93333C7.34399 8.00001 7.432 7.99601 7.48933 7.98134C7.60893 7.95281 7.71832 7.89175 7.80538 7.80492C7.89245 7.71809 7.9538 7.60887 7.98266 7.48934C7.996 7.43201 8 7.34268 8 6.93334V3.73334C8 3.32401 7.996 3.23601 7.98133 3.17868C7.95279 3.05907 7.89173 2.94969 7.8049 2.86262C7.71807 2.77556 7.60886 2.7142 7.48933 2.68534C7.432 2.67201 7.34266 2.66668 6.93333 2.66668L3.73333 2.66668ZM13.0667 2.66668C12.6573 2.66668 12.5693 2.67068 12.512 2.68534C12.3922 2.71399 12.2827 2.77524 12.1956 2.86232C12.1086 2.9494 12.0473 3.0589 12.0187 3.17868C12.0053 3.23601 12 3.32534 12 3.73334V6.93334C12 7.34401 12.004 7.43201 12.0187 7.48934C12.0473 7.60912 12.1086 7.71862 12.1956 7.8057C12.2827 7.89278 12.3922 7.95403 12.512 7.98268C12.5693 7.99601 12.6587 8.00001 13.0667 8.00001H16.2667C16.6773 8.00001 16.7653 7.99601 16.8227 7.98134C16.9423 7.95281 17.0517 7.89175 17.1387 7.80492C17.2258 7.71809 17.2871 7.60887 17.316 7.48934C17.3293 7.43201 17.3333 7.34268 17.3333 6.93334V3.73334C17.3333 3.32401 17.328 3.23601 17.3147 3.17868C17.2861 3.05907 17.2251 2.94969 17.1382 2.86262C17.0514 2.77556 16.9422 2.7142 16.8227 2.68534C16.7653 2.67201 16.676 2.66668 16.2667 2.66668H13.0667Z" fill="white"/>
</svg>
